<svg width="25" height="22" viewBox="0 0 25 22" fill="none" xmlns="http://www.w3.org/2000/svg">
<g filter="url(#filter0_d_1_490)">
<path d="M20.4139 1.86984C19.9653 2.52609 19.4229 3.08524 18.7867 3.54729C18.7934 3.64104 18.7967 3.78167 18.7967 3.96917C18.7967 4.8397 18.6695 5.71024 18.415 6.58078C18.1606 7.44461 17.7722 8.27497 17.2499 9.07185C16.7342 9.86872 16.1182 10.5752 15.4016 11.1913C14.6851 11.8006 13.8213 12.2895 12.8101 12.6578C11.799 13.0194 10.7175 13.2002 9.56571 13.2002C7.75098 13.2002 6.09026 12.7147 4.58357 11.7437C4.81794 11.7705 5.0791 11.7839 5.36705 11.7839C6.87374 11.7839 8.21638 11.3218 9.39495 10.3977C8.69182 10.3843 8.06236 10.1701 7.50656 9.75488C6.95075 9.33301 6.56906 8.79729 6.36147 8.14774C6.58245 8.18122 6.78669 8.19796 6.97419 8.19796C7.26214 8.19796 7.54674 8.16113 7.82799 8.08747C7.07799 7.93345 6.45522 7.5618 5.95968 6.97252C5.47084 6.37653 5.22642 5.6868 5.22642 4.90332V4.86314C5.68178 5.11761 6.17062 5.25488 6.69294 5.27497C6.25098 4.98033 5.89941 4.59528 5.63825 4.11984C5.37709 3.64439 5.24651 3.12877 5.24651 2.57296C5.24651 1.98368 5.39383 1.43792 5.68848 0.935686C6.49874 1.93345 7.48312 2.73368 8.6416 3.33636C9.80678 3.93234 11.0523 4.26381 12.3782 4.33078C12.3246 4.07631 12.2979 3.82854 12.2979 3.58747C12.2979 2.69015 12.6126 1.92676 13.242 1.29729C13.8782 0.661132 14.645 0.343052 15.5423 0.343052C16.4798 0.343052 17.27 0.68457 17.9128 1.36761C18.6427 1.22698 19.3291 0.96582 19.972 0.584124C19.7242 1.35421 19.2487 1.9502 18.5456 2.37207C19.1684 2.30511 19.7912 2.13769 20.4139 1.86984Z" fill="white"/>
</g>
<defs>
<filter id="filter0_d_1_490" x="0.583557" y="0.343262" width="23.8304" height="20.8569" filterUnits="userSpaceOnUse" color-interpolation-filters="sRGB">
<feFlood flood-opacity="0" result="BackgroundImageFix"/>
<feColorMatrix in="SourceAlpha" type="matrix" values="0 0 0 0 0 0 0 0 0 0 0 0 0 0 0 0 0 0 127 0" result="hardAlpha"/>
<feOffset dy="4"/>
<feGaussianBlur stdDeviation="2"/>
<feComposite in2="hardAlpha" operator="out"/>
<feColorMatrix type="matrix" values="0 0 0 0 0 0 0 0 0 0 0 0 0 0 0 0 0 0 0.25 0"/>
<feBlend mode="normal" in2="BackgroundImageFix" result="effect1_dropShadow_1_490"/>
<feBlend mode="normal" in="SourceGraphic" in2="effect1_dropShadow_1_490" result="shape"/>
</filter>
</defs>
</svg>
